<svg
  preserveAspectRatio="xMidYMid meet"
  focusable="false"
  width="0"
  height="0"
  visibility="hidden"
  style="visibility: hidden; position: absolute; pointer-events: none"
  xmlns="http://www.w3.org/2000/svg"
>
  <symbol id="github" viewBox="0 0 25 24" fill="none">
    <path
      d="M12.25 1.5C6.45156 1.5 1.75 6.32344 1.75 12.2672C1.75 17.025 4.75937 21.0562 8.93125 22.4812C8.98977 22.494 9.04949 22.5002 9.10938 22.5C9.49844 22.5 9.64844 22.2141 9.64844 21.9656C9.64844 21.7078 9.63906 21.0328 9.63437 20.1328C9.28705 20.2142 8.93173 20.2567 8.575 20.2594C6.55469 20.2594 6.09531 18.6891 6.09531 18.6891C5.61719 17.4469 4.92813 17.1141 4.92813 17.1141C4.01406 16.4719 4.92344 16.4531 4.99375 16.4531H4.99844C6.05313 16.5469 6.60625 17.5687 6.60625 17.5687C7.13125 18.4875 7.83437 18.7453 8.4625 18.7453C8.87783 18.737 9.28673 18.6412 9.6625 18.4641C9.75625 17.7703 10.0281 17.2969 10.3281 17.025C7.99844 16.7531 5.54688 15.8297 5.54688 11.7047C5.54688 10.5281 5.95469 9.56719 6.625 8.81719C6.51719 8.54531 6.15625 7.44844 6.72812 5.96719C6.80483 5.94883 6.88368 5.94095 6.9625 5.94375C7.34219 5.94375 8.2 6.08906 9.61563 7.07344C11.3357 6.59218 13.1549 6.59218 14.875 7.07344C16.2906 6.08906 17.1484 5.94375 17.5281 5.94375C17.6069 5.94095 17.6858 5.94883 17.7625 5.96719C18.3344 7.44844 17.9734 8.54531 17.8656 8.81719C18.5359 9.57187 18.9437 10.5328 18.9437 11.7047C18.9437 15.8391 16.4875 16.7484 14.1484 17.0156C14.5234 17.3484 14.8609 18.0047 14.8609 19.0078C14.8609 20.4469 14.8469 21.6094 14.8469 21.9609C14.8469 22.2141 14.9922 22.5 15.3812 22.5C15.4442 22.5003 15.5071 22.494 15.5687 22.4812C19.7453 21.0562 22.75 17.0203 22.75 12.2672C22.75 6.32344 18.0484 1.5 12.25 1.5Z"
      fill="currentColor"
    />
  </symbol>
  <symbol id="instragram" viewBox="0 0 25 24" fill="none">
    <path
      fill-rule="evenodd"
      clip-rule="evenodd"
      d="M19.7148 4.53517C18.8951 3.71539 17.7842 3.25331 16.6248 3.24984H7.87516C6.71582 3.25331 5.60495 3.71539 4.78517 4.53517C3.96539 5.35495 3.50331 6.46582 3.49984 7.62516V16.3748C3.50331 17.5342 3.96539 18.6451 4.78517 19.4648C5.60495 20.2846 6.71582 20.7467 7.87516 20.7502H16.6248C17.7842 20.7467 18.8951 20.2846 19.7148 19.4648C20.5346 18.6451 20.9967 17.5342 21.0002 16.3748V7.62516C20.9967 6.46582 20.5346 5.35495 19.7148 4.53517ZM7.87516 1.5H16.6248C19.9937 1.5 22.75 4.25625 22.75 7.62516V16.3748C22.75 19.7437 19.9937 22.5 16.6248 22.5H7.87516C4.50625 22.5 1.75 19.7437 1.75 16.3748V7.62516C1.75 4.25625 4.50625 1.5 7.87516 1.5ZM17.2082 7.40396C17.424 7.54818 17.6778 7.62515 17.9373 7.62515C18.1098 7.62552 18.2806 7.59183 18.4401 7.526C18.5995 7.46017 18.7443 7.36351 18.8663 7.24156C18.9882 7.11961 19.0849 6.97477 19.1507 6.81536C19.2165 6.65596 19.2502 6.48512 19.2498 6.31265C19.2498 6.05306 19.1729 5.79931 19.0286 5.58347C18.8844 5.36763 18.6794 5.1994 18.4396 5.10006C18.1998 5.00072 17.9359 4.97473 17.6813 5.02537C17.4267 5.07602 17.1928 5.20102 17.0093 5.38458C16.8257 5.56813 16.7007 5.802 16.6501 6.0566C16.5994 6.3112 16.6254 6.5751 16.7248 6.81492C16.8241 7.05475 16.9923 7.25974 17.2082 7.40396ZM14.1946 9.08972C13.619 8.70512 12.9423 8.49984 12.25 8.49984C11.322 8.50083 10.4323 8.86992 9.77611 9.52611C9.11992 10.1823 8.75084 11.072 8.74985 12C8.74985 12.6923 8.95513 13.369 9.33973 13.9446C9.72433 14.5202 10.271 14.9688 10.9106 15.2337C11.5501 15.4986 12.2539 15.568 12.9328 15.4329C13.6118 15.2978 14.2355 14.9645 14.725 14.475C15.2145 13.9855 15.5478 13.3618 15.6829 12.6828C15.818 12.0039 15.7486 11.3001 15.4837 10.6605C15.2188 10.021 14.7702 9.47433 14.1946 9.08972ZM9.33326 7.63478C10.1966 7.0579 11.2116 6.75 12.25 6.75C13.6424 6.75 14.9777 7.30312 15.9623 8.28769C16.9469 9.27225 17.5 10.6076 17.5 12C17.5 13.0383 17.1921 14.0534 16.6152 14.9167C16.0383 15.7801 15.2184 16.453 14.2591 16.8504C13.2998 17.2477 12.2442 17.3517 11.2258 17.1491C10.2074 16.9465 9.27192 16.4465 8.53769 15.7123C7.80347 14.9781 7.30345 14.0426 7.10088 13.0242C6.89831 12.0058 7.00227 10.9502 7.39963 9.99091C7.79699 9.0316 8.4699 8.21166 9.33326 7.63478Z"
      fill="currentColor"
    />
  </symbol>
  <symbol id="youtube" viewBox="0 0 25 24" fill="none">
    <path
      d="M24.0923 6.97453C24.0923 4.86516 22.5407 3.16828 20.6235 3.16828C18.0267 3.04687 15.3782 3 12.6717 3H11.8279C9.12792 3 6.4748 3.04687 3.87792 3.16875C1.96542 3.16875 0.413859 4.875 0.413859 6.98437C0.296672 8.65266 0.246984 10.3214 0.249797 11.9902C0.245109 13.6589 0.298234 15.3292 0.409172 17.0011C0.409172 19.1105 1.96073 20.8214 3.87323 20.8214C6.60136 20.948 9.3998 21.0042 12.2451 20.9995C15.0951 21.0089 17.8857 20.9495 20.617 20.8214C22.5342 20.8214 24.0857 19.1105 24.0857 17.0011C24.1982 15.3277 24.2498 13.6589 24.2451 11.9855C24.2557 10.3167 24.2048 8.64641 24.0923 6.97453ZM9.95292 16.5886V7.37766L16.7498 11.9808L9.95292 16.5886Z"
      fill="currentColor"
    />
  </symbol>
  <symbol id="linkedin" viewBox="0 0 25 24" fill="none">
    <path
      d="M21.0705 1.5H3.54437C2.58672 1.5 1.75 2.18906 1.75 3.13547V20.7005C1.75 21.652 2.58672 22.5 3.54437 22.5H21.0653C22.0281 22.5 22.75 21.6464 22.75 20.7005V3.13547C22.7556 2.18906 22.0281 1.5 21.0705 1.5ZM8.25953 19.0045H5.25109V9.65063H8.25953V19.0045ZM6.85938 8.22844H6.83781C5.875 8.22844 5.25156 7.51172 5.25156 6.61453C5.25156 5.70094 5.89141 5.00109 6.87578 5.00109C7.86016 5.00109 8.4625 5.69578 8.48406 6.61453C8.48359 7.51172 7.86016 8.22844 6.85938 8.22844ZM19.2545 19.0045H16.2461V13.89C16.2461 12.6647 15.8083 11.8275 14.7198 11.8275C13.8883 11.8275 13.3961 12.39 13.1772 12.938C13.0952 13.1348 13.0731 13.403 13.0731 13.6767V19.0045H10.0647V9.65063H13.0731V10.9523C13.5109 10.3289 14.1948 9.43172 15.7863 9.43172C17.7611 9.43172 19.255 10.7334 19.255 13.5398L19.2545 19.0045Z"
      fill="currentColor"
    />
  </symbol>
  <symbol id="moon" viewBox="0 0 16 16" fill="none">
    <path
      d="M13.5 7V4"
      stroke="currentColor"
      stroke-linecap="round"
      stroke-linejoin="round"
    />
    <path
      d="M15 5.5H12"
      stroke="currentColor"
      stroke-linecap="round"
      stroke-linejoin="round"
    />
    <path
      d="M10.5 1.5V3.5"
      stroke="currentColor"
      stroke-linecap="round"
      stroke-linejoin="round"
    />
    <path
      d="M11.5 2.5H9.49997"
      stroke="currentColor"
      stroke-linecap="round"
      stroke-linejoin="round"
    />
    <path
      d="M13.5436 9.53751C12.562 9.81279 11.5247 9.82181 10.5384 9.56365C9.5521 9.30549 8.65228 8.78945 7.93136 8.06853C7.21044 7.34761 6.6944 6.44779 6.43624 5.46149C6.17808 4.47518 6.1871 3.43793 6.46238 2.45626C5.49454 2.72564 4.61418 3.2439 3.90897 3.95941C3.20376 4.67491 2.69832 5.5627 2.443 6.53434C2.18767 7.50598 2.19137 8.52756 2.45373 9.49732C2.71609 10.4671 3.22796 11.3512 3.93833 12.0616C4.64871 12.7719 5.53281 13.2838 6.50257 13.5462C7.47233 13.8085 8.49391 13.8122 9.46555 13.5569C10.4372 13.3016 11.325 12.7961 12.0405 12.0909C12.756 11.3857 13.2742 10.5053 13.5436 9.53751Z"
      stroke="currentColor"
      stroke-linecap="round"
      stroke-linejoin="round"
    />
  </symbol>
  <symbol id="moon" viewBox="0 0 16 16" fill="none">
    <path
      d="M13.5 7V4"
      stroke="current"
      stroke-linecap="round"
      stroke-linejoin="round"
    />
    <path
      d="M15 5.5H12"
      stroke="current"
      stroke-linecap="round"
      stroke-linejoin="round"
    />
    <path
      d="M10.5 1.5V3.5"
      stroke="current"
      stroke-linecap="round"
      stroke-linejoin="round"
    />
    <path
      d="M11.5 2.5H9.49997"
      stroke="current"
      stroke-linecap="round"
      stroke-linejoin="round"
    />
    <path
      d="M13.5436 9.53751C12.562 9.81279 11.5247 9.82181 10.5384 9.56365C9.5521 9.30549 8.65228 8.78945 7.93136 8.06853C7.21044 7.34761 6.6944 6.44779 6.43624 5.46149C6.17808 4.47518 6.1871 3.43793 6.46238 2.45626C5.49454 2.72564 4.61418 3.2439 3.90897 3.95941C3.20376 4.67491 2.69832 5.5627 2.443 6.53434C2.18767 7.50598 2.19137 8.52756 2.45373 9.49732C2.71609 10.4671 3.22796 11.3512 3.93833 12.0616C4.64871 12.7719 5.53281 13.2838 6.50257 13.5462C7.47233 13.8085 8.49391 13.8122 9.46555 13.5569C10.4372 13.3016 11.325 12.7961 12.0405 12.0909C12.756 11.3857 13.2742 10.5053 13.5436 9.53751Z"
      stroke="current"
      stroke-linecap="round"
      stroke-linejoin="round"
    />
  </symbol>
  <symbol id="sun" viewBox="0 0 16 16" fill="none">
    <path
      d="M7.99997 11.75C10.071 11.75 11.75 10.0711 11.75 8C11.75 5.92893 10.071 4.25 7.99997 4.25C5.9289 4.25 4.24997 5.92893 4.24997 8C4.24997 10.0711 5.9289 11.75 7.99997 11.75Z"
      stroke="currentColor"
      stroke-linecap="round"
      stroke-linejoin="round"
    />
    <path
      d="M7.99997 2.25V1"
      stroke="currentColor"
      stroke-linecap="round"
      stroke-linejoin="round"
    />
    <path
      d="M3.93119 3.93126L3.04994 3.05001"
      stroke="currentColor"
      stroke-linecap="round"
      stroke-linejoin="round"
    />
    <path
      d="M2.24997 8H0.999969"
      stroke="currentColor"
      stroke-linecap="round"
      stroke-linejoin="round"
    />
    <path
      d="M3.93119 12.0688L3.04994 12.95"
      stroke="currentColor"
      stroke-linecap="round"
      stroke-linejoin="round"
    />
    <path
      d="M7.99997 13.75V15"
      stroke="currentColor"
      stroke-linecap="round"
      stroke-linejoin="round"
    />
    <path
      d="M12.0686 12.0688L12.9499 12.95"
      stroke="currentColor"
      stroke-linecap="round"
      stroke-linejoin="round"
    />
    <path
      d="M13.75 8H15"
      stroke="currentColor"
      stroke-linecap="round"
      stroke-linejoin="round"
    />
    <path
      d="M12.0686 3.93126L12.9499 3.05001"
      stroke="currentColor"
      stroke-linecap="round"
      stroke-linejoin="round"
    />
  </symbol>
</svg>
